<svg width="48" height="48" viewBox="0 0 48 48" fill="none" xmlns="http://www.w3.org/2000/svg">
<path d="M0 8C0 3.58172 3.58172 0 8 0H40C44.4183 0 48 3.58172 48 8V40C48 44.4183 44.4183 48 40 48H8C3.58172 48 0 44.4183 0 40V8Z" fill="#F8C12F"/>
<path d="M23.9998 37.44C23.5998 37.44 23.1998 37.3467 22.8665 37.16C20.3732 35.8 15.9865 34.36 13.2398 34L12.8532 33.9467C11.1065 33.7333 9.6665 32.0933 9.6665 30.32V14.2133C9.6665 13.16 10.0798 12.2 10.8398 11.5067C11.5998 10.8133 12.5865 10.48 13.6265 10.5733C16.5598 10.8 20.9865 12.2667 23.4932 13.84L23.8132 14.0267C23.9065 14.08 24.1065 14.08 24.1865 14.04L24.3998 13.9067C26.9065 12.3333 31.3332 10.84 34.2798 10.5867C34.3065 10.5867 34.4132 10.5867 34.4398 10.5867C35.4132 10.4933 36.4132 10.84 37.1598 11.5333C37.9198 12.2267 38.3332 13.1867 38.3332 14.24V30.3333C38.3332 32.12 36.8932 33.7467 35.1332 33.96L34.6932 34.0133C31.9465 34.3733 27.5465 35.8267 25.1065 37.1733C24.7865 37.36 24.3998 37.44 23.9998 37.44ZM13.3065 12.56C12.8798 12.56 12.4932 12.7067 12.1865 12.9867C11.8532 13.2933 11.6665 13.7333 11.6665 14.2133V30.32C11.6665 31.1067 12.3465 31.8667 13.1065 31.9733L13.5065 32.0267C16.5065 32.4267 21.1065 33.9333 23.7732 35.3867C23.8932 35.44 24.0665 35.4533 24.1332 35.4267C26.7998 33.9467 31.4265 32.4267 34.4398 32.0267L34.8932 31.9733C35.6532 31.88 36.3332 31.1067 36.3332 30.32V14.2267C36.3332 13.7333 36.1465 13.3067 35.8132 12.9867C35.4665 12.68 35.0265 12.5333 34.5332 12.56C34.5065 12.56 34.3998 12.56 34.3732 12.56C31.8265 12.7867 27.7198 14.16 25.4798 15.56L25.2665 15.7067C24.5332 16.16 23.4932 16.16 22.7865 15.72L22.4665 15.5333C20.1865 14.1333 16.0798 12.7733 13.4665 12.56C13.4132 12.56 13.3598 12.56 13.3065 12.56Z" fill="#0C131F"/>
<path d="M24 36.32C23.4533 36.32 23 35.8667 23 35.32V15.32C23 14.7733 23.4533 14.32 24 14.32C24.5467 14.32 25 14.7733 25 15.32V35.32C25 35.88 24.5467 36.32 24 36.32Z" fill="#0C131F"/>
<path d="M18.3335 20.32H15.3335C14.7868 20.32 14.3335 19.8667 14.3335 19.32C14.3335 18.7733 14.7868 18.32 15.3335 18.32H18.3335C18.8802 18.32 19.3335 18.7733 19.3335 19.32C19.3335 19.8667 18.8802 20.32 18.3335 20.32Z" fill="#0C131F"/>
<path d="M19.3335 24.32H15.3335C14.7868 24.32 14.3335 23.8667 14.3335 23.32C14.3335 22.7733 14.7868 22.32 15.3335 22.32H19.3335C19.8802 22.32 20.3335 22.7733 20.3335 23.32C20.3335 23.8667 19.8802 24.32 19.3335 24.32Z" fill="#0C131F"/>
</svg>
