<svg width="48" height="48" viewBox="0 0 48 48" fill="none" xmlns="http://www.w3.org/2000/svg">
<path d="M0 8C0 3.58172 3.58172 0 8 0H40C44.4183 0 48 3.58172 48 8V40C48 44.4183 44.4183 48 40 48H8C3.58172 48 0 44.4183 0 40V8Z" fill="#FFC9CA"/>
<path d="M15.2933 22.3333C14.3467 22.3333 13.3867 21.9867 12.6533 21.28C10.2 18.9467 9.21334 16.4 9.78667 13.9067C10.4667 10.9733 13.04 9.66666 15.2933 9.66666C17.5467 9.66666 20.1333 10.9867 20.8 13.9067C21.3733 16.4 20.3733 18.9467 17.9333 21.28C17.2 21.9867 16.2533 22.3333 15.2933 22.3333ZM11.7333 14.36C11.2267 16.5867 12.7067 18.56 14.04 19.8267C14.7467 20.5067 15.8533 20.4933 16.56 19.8267C17.8933 18.56 19.3733 16.5867 18.8533 14.3467C18.4 12.3733 16.6533 11.6667 15.3067 11.6667C13.9467 11.6667 12.2 12.3733 11.7333 14.36Z" fill="#0C131F"/>
<path d="M15.3467 16.2667C14.6133 16.2667 14.0133 15.6667 14.0133 14.9333C14.0133 14.2 14.6 13.6 15.3467 13.6H15.36C16.0933 13.6 16.6933 14.2 16.6933 14.9333C16.6933 15.6667 16.0933 16.2667 15.3467 16.2667Z" fill="#0C131F"/>
<path d="M32.6533 38.3333C31.7067 38.3333 30.7467 37.9867 30 37.28C27.5333 34.9467 26.5333 32.4 27.12 29.8933C27.8 26.9733 30.3867 25.6533 32.6533 25.6533C34.92 25.6533 37.5067 26.9733 38.1867 29.8933C38.76 32.3867 37.76 34.9467 35.2933 37.2667C34.56 37.9867 33.6133 38.3333 32.6533 38.3333ZM32.6533 27.6667C31.2933 27.6667 29.5333 28.3733 29.0667 30.36C28.5467 32.5867 30.04 34.5733 31.3733 35.84C32.08 36.52 33.2 36.52 33.92 35.84C35.2533 34.5733 36.7467 32.6 36.2267 30.3733C35.7867 28.3733 34.0267 27.6667 32.6533 27.6667Z" fill="#0C131F"/>
<path d="M32.7067 32.2667C31.9733 32.2667 31.3733 31.6667 31.3733 30.9333C31.3733 30.2 31.96 29.6 32.7067 29.6H32.72C33.4533 29.6 34.0533 30.2 34.0533 30.9333C34.0533 31.6667 33.44 32.2667 32.7067 32.2667Z" fill="#0C131F"/>
<path d="M24 34.3333H20.4267C18.88 34.3333 17.5333 33.4 17 31.96C16.4533 30.52 16.8533 28.9333 18.0133 27.9067L28.6667 18.5867C29.3067 18.0267 29.32 17.2667 29.1333 16.7467C28.9333 16.2267 28.4267 15.6667 27.5733 15.6667H24C23.4533 15.6667 23 15.2133 23 14.6667C23 14.12 23.4533 13.6667 24 13.6667H27.5733C29.12 13.6667 30.4667 14.6 31 16.04C31.5467 17.48 31.1467 19.0667 29.9867 20.0933L19.3333 29.4133C18.6933 29.9733 18.68 30.7333 18.8667 31.2533C19.0667 31.7733 19.5733 32.3333 20.4267 32.3333H24C24.5467 32.3333 25 32.7867 25 33.3333C25 33.88 24.5467 34.3333 24 34.3333Z" fill="#0C131F"/>
<path d="M24 34.3333H20.4267C18.88 34.3333 17.5333 33.4 17 31.96C16.4533 30.52 16.8533 28.9333 18.0133 27.9067L28.6667 18.5867C29.3067 18.0267 29.32 17.2667 29.1333 16.7467C28.9333 16.2267 28.4267 15.6667 27.5733 15.6667H24C23.4533 15.6667 23 15.2133 23 14.6667C23 14.12 23.4533 13.6667 24 13.6667H27.5733C29.12 13.6667 30.4667 14.6 31 16.04C31.5467 17.48 31.1467 19.0667 29.9867 20.0933L19.3333 29.4133C18.6933 29.9733 18.68 30.7333 18.8667 31.2533C19.0667 31.7733 19.5733 32.3333 20.4267 32.3333H24C24.5467 32.3333 25 32.7867 25 33.3333C25 33.88 24.5467 34.3333 24 34.3333Z" fill="#0C131F"/>
</svg>
