<svg width="48" height="48" viewBox="0 0 48 48" fill="none" xmlns="http://www.w3.org/2000/svg">
<path d="M0 8C0 3.58172 3.58172 0 8 0H40C44.4183 0 48 3.58172 48 8V40C48 44.4183 44.4183 48 40 48H8C3.58172 48 0 44.4183 0 40V8Z" fill="#F29BD3"/>
<path d="M15.2932 22.3333C14.3465 22.3333 13.3865 21.9867 12.6532 21.28C10.1999 18.9467 9.21321 16.4 9.78655 13.9067C10.4665 10.9733 13.0399 9.66666 15.2932 9.66666C17.5465 9.66666 20.1332 10.9867 20.7999 13.9067C21.3732 16.4 20.3732 18.9467 17.9332 21.28C17.1999 21.9867 16.2532 22.3333 15.2932 22.3333ZM11.7332 14.36C11.2265 16.5867 12.7065 18.56 14.0399 19.8267C14.7465 20.5067 15.8532 20.4933 16.5599 19.8267C17.8932 18.56 19.3732 16.5867 18.8532 14.3467C18.3999 12.3733 16.6532 11.6667 15.3065 11.6667C13.9465 11.6667 12.1999 12.3733 11.7332 14.36Z" fill="#0C131F"/>
<path d="M15.3465 16.2667C14.6132 16.2667 14.0132 15.6667 14.0132 14.9333C14.0132 14.2 14.5999 13.6 15.3465 13.6H15.3598C16.0932 13.6 16.6932 14.2 16.6932 14.9333C16.6932 15.6667 16.0932 16.2667 15.3465 16.2667Z" fill="#0C131F"/>
<path d="M32.6533 38.3333C31.7067 38.3333 30.7467 37.9867 30 37.28C27.5333 34.9467 26.5333 32.4 27.12 29.8933C27.8 26.9733 30.3867 25.6533 32.6533 25.6533C34.92 25.6533 37.5067 26.9733 38.1867 29.8933C38.76 32.3867 37.76 34.9467 35.2933 37.2667C34.56 37.9867 33.6133 38.3333 32.6533 38.3333ZM32.6533 27.6667C31.2933 27.6667 29.5333 28.3733 29.0667 30.36C28.5467 32.5867 30.04 34.5733 31.3733 35.84C32.08 36.52 33.2 36.52 33.92 35.84C35.2533 34.5733 36.7467 32.6 36.2267 30.3733C35.7867 28.3733 34.0267 27.6667 32.6533 27.6667Z" fill="#0C131F"/>
<path d="M32.7069 32.2667C31.9735 32.2667 31.3735 31.6667 31.3735 30.9333C31.3735 30.2 31.9602 29.6 32.7069 29.6H32.7202C33.4535 29.6 34.0535 30.2 34.0535 30.9333C34.0535 31.6667 33.4402 32.2667 32.7069 32.2667Z" fill="#0C131F"/>
<path d="M23.9998 34.3333H20.4264C18.8798 34.3333 17.5331 33.4 16.9998 31.96C16.4531 30.52 16.8531 28.9333 18.0131 27.9067L28.6664 18.5867C29.3064 18.0267 29.3198 17.2667 29.1331 16.7467C28.9331 16.2267 28.4264 15.6667 27.5731 15.6667H23.9998C23.4531 15.6667 22.9998 15.2133 22.9998 14.6667C22.9998 14.12 23.4531 13.6667 23.9998 13.6667H27.5731C29.1198 13.6667 30.4664 14.6 30.9998 16.04C31.5464 17.48 31.1464 19.0667 29.9864 20.0933L19.3331 29.4133C18.6931 29.9733 18.6798 30.7333 18.8664 31.2533C19.0664 31.7733 19.5731 32.3333 20.4264 32.3333H23.9998C24.5464 32.3333 24.9998 32.7867 24.9998 33.3333C24.9998 33.88 24.5464 34.3333 23.9998 34.3333Z" fill="#0C131F"/>
<path d="M23.9998 34.3333H20.4264C18.8798 34.3333 17.5331 33.4 16.9998 31.96C16.4531 30.52 16.8531 28.9333 18.0131 27.9067L28.6664 18.5867C29.3064 18.0267 29.3198 17.2667 29.1331 16.7467C28.9331 16.2267 28.4264 15.6667 27.5731 15.6667H23.9998C23.4531 15.6667 22.9998 15.2133 22.9998 14.6667C22.9998 14.12 23.4531 13.6667 23.9998 13.6667H27.5731C29.1198 13.6667 30.4664 14.6 30.9998 16.04C31.5464 17.48 31.1464 19.0667 29.9864 20.0933L19.3331 29.4133C18.6931 29.9733 18.6798 30.7333 18.8664 31.2533C19.0664 31.7733 19.5731 32.3333 20.4264 32.3333H23.9998C24.5464 32.3333 24.9998 32.7867 24.9998 33.3333C24.9998 33.88 24.5464 34.3333 23.9998 34.3333Z" fill="#0C131F"/>
</svg>
