<svg width="48" height="48" viewBox="0 0 48 48" fill="none" xmlns="http://www.w3.org/2000/svg">
<path d="M0 8C0 3.58172 3.58172 0 8 0H40C44.4183 0 48 3.58172 48 8V40C48 44.4183 44.4183 48 40 48H8C3.58172 48 0 44.4183 0 40V8Z" fill="#B3CFFF"/>
<path d="M36 23.6667H12C10.72 23.6667 9.66666 22.6134 9.66666 21.3334V16.9067C9.66666 16 10.2933 15.08 11.1333 14.7467L23.1333 9.94672C23.64 9.74672 24.36 9.74672 24.8667 9.94672L36.8667 14.7467C37.7067 15.08 38.3333 16.0134 38.3333 16.9067V21.3334C38.3333 22.6134 37.28 23.6667 36 23.6667ZM24 11.7867C23.9467 11.7867 23.8934 11.7867 23.8667 11.8L11.88 16.6C11.8 16.64 11.6667 16.8134 11.6667 16.9067V21.3334C11.6667 21.52 11.8133 21.6667 12 21.6667H36C36.1867 21.6667 36.3333 21.52 36.3333 21.3334V16.9067C36.3333 16.8134 36.2134 16.64 36.12 16.6L24.12 11.8C24.0934 11.7867 24.0533 11.7867 24 11.7867Z" fill="#0C131F"/>
<path d="M37.3333 38.3333H10.6667C10.12 38.3333 9.66666 37.88 9.66666 37.3333V33.3333C9.66666 32.0533 10.72 31 12 31H36C37.28 31 38.3333 32.0533 38.3333 33.3333V37.3333C38.3333 37.88 37.88 38.3333 37.3333 38.3333ZM11.6667 36.3333H36.3333V33.3333C36.3333 33.1467 36.1867 33 36 33H12C11.8133 33 11.6667 33.1467 11.6667 33.3333V36.3333Z" fill="#0C131F"/>
<path d="M13.3333 33C12.7867 33 12.3333 32.5467 12.3333 32V22.6667C12.3333 22.12 12.7867 21.6667 13.3333 21.6667C13.88 21.6667 14.3333 22.12 14.3333 22.6667V32C14.3333 32.5467 13.88 33 13.3333 33Z" fill="#0C131F"/>
<path d="M18.6667 33C18.12 33 17.6667 32.5467 17.6667 32V22.6667C17.6667 22.12 18.12 21.6667 18.6667 21.6667C19.2133 21.6667 19.6667 22.12 19.6667 22.6667V32C19.6667 32.5467 19.2133 33 18.6667 33Z" fill="#0C131F"/>
<path d="M24 33C23.4533 33 23 32.5467 23 32V22.6667C23 22.12 23.4533 21.6667 24 21.6667C24.5467 21.6667 25 22.12 25 22.6667V32C25 32.5467 24.5467 33 24 33Z" fill="#0C131F"/>
<path d="M29.3333 33C28.7867 33 28.3333 32.5467 28.3333 32V22.6667C28.3333 22.12 28.7867 21.6667 29.3333 21.6667C29.88 21.6667 30.3333 22.12 30.3333 22.6667V32C30.3333 32.5467 29.88 33 29.3333 33Z" fill="#0C131F"/>
<path d="M34.6667 33C34.12 33 33.6667 32.5467 33.6667 32V22.6667C33.6667 22.12 34.12 21.6667 34.6667 21.6667C35.2133 21.6667 35.6667 22.12 35.6667 22.6667V32C35.6667 32.5467 35.2133 33 34.6667 33Z" fill="#0C131F"/>
<path d="M38.6667 38.3333H9.33334C8.78668 38.3333 8.33334 37.88 8.33334 37.3333C8.33334 36.7866 8.78668 36.3333 9.33334 36.3333H38.6667C39.2133 36.3333 39.6667 36.7866 39.6667 37.3333C39.6667 37.88 39.2133 38.3333 38.6667 38.3333Z" fill="#0C131F"/>
<path d="M24 20.3333C22.3467 20.3333 21 18.9867 21 17.3333C21 15.68 22.3467 14.3333 24 14.3333C25.6533 14.3333 27 15.68 27 17.3333C27 18.9867 25.6533 20.3333 24 20.3333ZM24 16.3333C23.4533 16.3333 23 16.7867 23 17.3333C23 17.88 23.4533 18.3333 24 18.3333C24.5467 18.3333 25 17.88 25 17.3333C25 16.7867 24.5467 16.3333 24 16.3333Z" fill="#0C131F"/>
</svg>
