<svg width="48" height="48" viewBox="0 0 48 48" fill="none" xmlns="http://www.w3.org/2000/svg">
<path d="M0 8C0 3.58172 3.58172 0 8 0H40C44.4183 0 48 3.58172 48 8V40C48 44.4183 44.4183 48 40 48H8C3.58172 48 0 44.4183 0 40V8Z" fill="#F8C12F"/>
<path d="M35.9998 23.6667H11.9998C10.7198 23.6667 9.6665 22.6134 9.6665 21.3334V16.9067C9.6665 16 10.2931 15.08 11.1331 14.7467L23.1331 9.94672C23.6398 9.74672 24.3599 9.74672 24.8665 9.94672L36.8665 14.7467C37.7065 15.08 38.3332 16.0134 38.3332 16.9067V21.3334C38.3332 22.6134 37.2798 23.6667 35.9998 23.6667ZM23.9998 11.7867C23.9465 11.7867 23.8932 11.7867 23.8665 11.8L11.8798 16.6C11.7998 16.64 11.6665 16.8134 11.6665 16.9067V21.3334C11.6665 21.52 11.8132 21.6667 11.9998 21.6667H35.9998C36.1865 21.6667 36.3332 21.52 36.3332 21.3334V16.9067C36.3332 16.8134 36.2132 16.64 36.1199 16.6L24.1199 11.8C24.0932 11.7867 24.0532 11.7867 23.9998 11.7867Z" fill="#0C131F"/>
<path d="M37.3332 38.3333H10.6665C10.1198 38.3333 9.6665 37.88 9.6665 37.3333V33.3333C9.6665 32.0533 10.7198 31 11.9998 31H35.9998C37.2798 31 38.3332 32.0533 38.3332 33.3333V37.3333C38.3332 37.88 37.8798 38.3333 37.3332 38.3333ZM11.6665 36.3333H36.3332V33.3333C36.3332 33.1467 36.1865 33 35.9998 33H11.9998C11.8132 33 11.6665 33.1467 11.6665 33.3333V36.3333Z" fill="#0C131F"/>
<path d="M13.3335 33C12.7868 33 12.3335 32.5467 12.3335 32V22.6667C12.3335 22.12 12.7868 21.6667 13.3335 21.6667C13.8802 21.6667 14.3335 22.12 14.3335 22.6667V32C14.3335 32.5467 13.8802 33 13.3335 33Z" fill="#0C131F"/>
<path d="M18.6665 33C18.1198 33 17.6665 32.5467 17.6665 32V22.6667C17.6665 22.12 18.1198 21.6667 18.6665 21.6667C19.2132 21.6667 19.6665 22.12 19.6665 22.6667V32C19.6665 32.5467 19.2132 33 18.6665 33Z" fill="#0C131F"/>
<path d="M24 33C23.4533 33 23 32.5467 23 32V22.6667C23 22.12 23.4533 21.6667 24 21.6667C24.5467 21.6667 25 22.12 25 22.6667V32C25 32.5467 24.5467 33 24 33Z" fill="#0C131F"/>
<path d="M29.3335 33C28.7868 33 28.3335 32.5467 28.3335 32V22.6667C28.3335 22.12 28.7868 21.6667 29.3335 21.6667C29.8802 21.6667 30.3335 22.12 30.3335 22.6667V32C30.3335 32.5467 29.8802 33 29.3335 33Z" fill="#0C131F"/>
<path d="M34.6665 33C34.1198 33 33.6665 32.5467 33.6665 32V22.6667C33.6665 22.12 34.1198 21.6667 34.6665 21.6667C35.2132 21.6667 35.6665 22.12 35.6665 22.6667V32C35.6665 32.5467 35.2132 33 34.6665 33Z" fill="#0C131F"/>
<path d="M38.6668 38.3333H9.3335C8.78683 38.3333 8.3335 37.88 8.3335 37.3333C8.3335 36.7866 8.78683 36.3333 9.3335 36.3333H38.6668C39.2135 36.3333 39.6668 36.7866 39.6668 37.3333C39.6668 37.88 39.2135 38.3333 38.6668 38.3333Z" fill="#0C131F"/>
<path d="M24 20.3333C22.3467 20.3333 21 18.9867 21 17.3333C21 15.68 22.3467 14.3333 24 14.3333C25.6533 14.3333 27 15.68 27 17.3333C27 18.9867 25.6533 20.3333 24 20.3333ZM24 16.3333C23.4533 16.3333 23 16.7867 23 17.3333C23 17.88 23.4533 18.3333 24 18.3333C24.5467 18.3333 25 17.88 25 17.3333C25 16.7867 24.5467 16.3333 24 16.3333Z" fill="#0C131F"/>
</svg>
