<svg width="48" height="48" viewBox="0 0 48 48" fill="none" xmlns="http://www.w3.org/2000/svg">
<path d="M0 8C0 3.58172 3.58172 0 8 0H40C44.4183 0 48 3.58172 48 8V40C48 44.4183 44.4183 48 40 48H8C3.58172 48 0 44.4183 0 40V8Z" fill="#D0FF5F"/>
<path d="M33.2931 38.3334H14.6265C9.62646 38.3334 9.62646 35.56 9.62646 33.3334V32C9.62646 30.72 10.6798 29.6667 11.9598 29.6667H35.9598C37.2398 29.6667 38.2931 30.72 38.2931 32V33.3334C38.2931 35.56 38.2931 38.3334 33.2931 38.3334ZM11.9598 31.6667C11.7731 31.6667 11.6265 31.8134 11.6265 32V33.3334C11.6265 35.52 11.6265 36.3334 14.6265 36.3334H33.2931C36.2931 36.3334 36.2931 35.52 36.2931 33.3334V32C36.2931 31.8134 36.1465 31.6667 35.9598 31.6667H11.9598Z" fill="#0C131F"/>
<path d="M35.6265 31.6667H12.3599C11.8132 31.6667 11.3599 31.2134 11.3599 30.6667V25.3334C11.3599 19.8667 15.2399 15.0667 20.5732 13.9334C21.3599 13.76 22.1865 13.6667 23.0265 13.6667H24.9599C25.8132 13.6667 26.6399 13.76 27.4265 13.9334C32.7599 15.08 36.6265 19.88 36.6265 25.3334V30.6667C36.6265 31.2134 36.1865 31.6667 35.6265 31.6667ZM13.3599 29.6667H34.6265V25.3334C34.6265 20.8134 31.4265 16.84 26.9999 15.88C26.3465 15.7334 25.6665 15.6667 24.9599 15.6667H23.0265C22.3332 15.6667 21.6532 15.7334 20.9999 15.88C16.5732 16.8267 13.3599 20.8 13.3599 25.3334V29.6667Z" fill="#0C131F"/>
<path d="M20.7865 15.9067C20.3465 15.9067 19.9465 15.6134 19.8265 15.1734C19.7198 14.7867 19.6665 14.4 19.6665 14C19.6665 11.6134 21.6132 9.66669 23.9998 9.66669C26.3865 9.66669 28.3332 11.6134 28.3332 14C28.3332 14.4 28.2798 14.7867 28.1732 15.1734C28.0398 15.68 27.5332 16 26.9998 15.88C26.3465 15.7334 25.6665 15.6667 24.9598 15.6667H23.0265C22.3332 15.6667 21.6532 15.7334 20.9998 15.88C20.9332 15.8934 20.8665 15.9067 20.7865 15.9067ZM23.0265 13.6667H24.9598C25.4132 13.6667 25.8798 13.6934 26.3198 13.7467C26.1998 12.5734 25.1998 11.6667 23.9998 11.6667C22.7998 11.6667 21.8132 12.5734 21.6798 13.7467C22.1332 13.6934 22.5732 13.6667 23.0265 13.6667Z" fill="#0C131F"/>
<path d="M28 23.6667H20C19.4533 23.6667 19 23.2134 19 22.6667C19 22.12 19.4533 21.6667 20 21.6667H28C28.5467 21.6667 29 22.12 29 22.6667C29 23.2134 28.5467 23.6667 28 23.6667Z" fill="#0C131F"/>
</svg>
