<svg width="48" height="48" viewBox="0 0 48 48" fill="none" xmlns="http://www.w3.org/2000/svg">
<path d="M0 8C0 3.58172 3.58172 0 8 0H40C44.4183 0 48 3.58172 48 8V40C48 44.4183 44.4183 48 40 48H8C3.58172 48 0 44.4183 0 40V8Z" fill="#FFE7B1"/>
<path d="M33.2933 38.3334H14.6267C9.62668 38.3334 9.62668 35.56 9.62668 33.3334V32C9.62668 30.72 10.68 29.6667 11.96 29.6667H35.96C37.24 29.6667 38.2933 30.72 38.2933 32V33.3334C38.2933 35.56 38.2933 38.3334 33.2933 38.3334ZM11.96 31.6667C11.7733 31.6667 11.6267 31.8134 11.6267 32V33.3334C11.6267 35.52 11.6267 36.3334 14.6267 36.3334H33.2933C36.2933 36.3334 36.2933 35.52 36.2933 33.3334V32C36.2933 31.8134 36.1467 31.6667 35.96 31.6667H11.96Z" fill="#0C131F"/>
<path d="M35.6266 31.6667H12.36C11.8133 31.6667 11.36 31.2134 11.36 30.6667V25.3334C11.36 19.8667 15.24 15.0667 20.5733 13.9334C21.36 13.76 22.1867 13.6667 23.0267 13.6667H24.96C25.8133 13.6667 26.64 13.76 27.4266 13.9334C32.76 15.08 36.6266 19.88 36.6266 25.3334V30.6667C36.6266 31.2134 36.1866 31.6667 35.6266 31.6667ZM13.36 29.6667H34.6266V25.3334C34.6266 20.8134 31.4267 16.84 27 15.88C26.3467 15.7334 25.6667 15.6667 24.96 15.6667H23.0267C22.3333 15.6667 21.6533 15.7334 21 15.88C16.5733 16.8267 13.36 20.8 13.36 25.3334V29.6667Z" fill="#0C131F"/>
<path d="M20.7867 15.9067C20.3467 15.9067 19.9467 15.6134 19.8267 15.1734C19.72 14.7867 19.6667 14.4 19.6667 14C19.6667 11.6134 21.6133 9.66669 24 9.66669C26.3867 9.66669 28.3333 11.6134 28.3333 14C28.3333 14.4 28.28 14.7867 28.1733 15.1734C28.04 15.68 27.5333 16 27 15.88C26.3467 15.7334 25.6667 15.6667 24.96 15.6667H23.0267C22.3333 15.6667 21.6533 15.7334 21 15.88C20.9333 15.8934 20.8667 15.9067 20.7867 15.9067ZM23.0267 13.6667H24.96C25.4133 13.6667 25.88 13.6934 26.32 13.7467C26.2 12.5734 25.2 11.6667 24 11.6667C22.8 11.6667 21.8133 12.5734 21.68 13.7467C22.1333 13.6934 22.5733 13.6667 23.0267 13.6667Z" fill="#0C131F"/>
<path d="M28 23.6667H20C19.4533 23.6667 19 23.2134 19 22.6667C19 22.12 19.4533 21.6667 20 21.6667H28C28.5467 21.6667 29 22.12 29 22.6667C29 23.2134 28.5467 23.6667 28 23.6667Z" fill="#0C131F"/>
</svg>
