<svg width="48" height="48" viewBox="0 0 48 48" fill="none" xmlns="http://www.w3.org/2000/svg">
<path d="M0 8C0 3.58172 3.58172 0 8 0H40C44.4183 0 48 3.58172 48 8V40C48 44.4183 44.4183 48 40 48H8C3.58172 48 0 44.4183 0 40V8Z" fill="#F8C12F"/>
<path d="M21.3332 27.6667H16.2665C11.7065 27.6667 9.6665 25.6268 9.6665 21.0668V16.2666C9.6665 11.7066 11.7065 9.66669 16.2665 9.66669H21.0665C25.6265 9.66669 27.6665 11.7066 27.6665 16.2666V21.3334C27.6665 21.88 27.2265 22.32 26.6798 22.3334C23.4798 22.3867 22.3865 23.4934 22.3332 26.68C22.3198 27.2267 21.8798 27.6667 21.3332 27.6667ZM16.2665 11.6667C12.8265 11.6667 11.6665 12.8266 11.6665 16.2666V21.0668C11.6665 24.5068 12.8265 25.6667 16.2665 25.6667H20.3865C20.7065 22.4134 22.4132 20.7201 25.6665 20.3867V16.2666C25.6665 12.8266 24.5065 11.6667 21.0665 11.6667H16.2665Z" fill="#0C131F"/>
<path d="M14.9333 16.84C14.6267 16.84 14.3067 16.6934 14.12 16.4134C13.8 15.9601 13.9067 15.3333 14.36 15.0133C15.4 14.28 16.8 14.2667 17.8533 14.9867C18.3067 15.2933 18.4267 15.92 18.12 16.3734C17.8133 16.8267 17.1867 16.9466 16.7333 16.64C16.3733 16.4 15.8933 16.4 15.5333 16.6533C15.3333 16.7867 15.1333 16.84 14.9333 16.84Z" fill="#0C131F"/>
<path d="M20.2668 16.84C19.9602 16.84 19.6402 16.6934 19.4535 16.4134C19.1335 15.9601 19.2402 15.3333 19.6935 15.0133C20.7335 14.28 22.1335 14.2667 23.1868 14.9867C23.6402 15.2933 23.7602 15.92 23.4535 16.3734C23.1468 16.8267 22.5202 16.9466 22.0668 16.64C21.7068 16.4 21.2268 16.4 20.8668 16.6533C20.6668 16.7867 20.4668 16.84 20.2668 16.84Z" fill="#0C131F"/>
<path d="M18.8797 24.2267H15.7864C14.8397 24.2267 14.0664 23.4533 14.0664 22.5067C14.0664 19.9733 16.1331 17.9067 18.6664 17.9067C19.7064 17.9067 20.7331 18.2666 21.5464 18.9199C21.9731 19.2666 22.0531 19.8933 21.7064 20.32C21.3597 20.7467 20.7331 20.8133 20.3064 20.48C19.8397 20.1066 19.2797 19.9067 18.6797 19.9067C17.3464 19.9067 16.2397 20.9201 16.0931 22.2267H18.8931C19.4397 22.2267 19.8931 22.6801 19.8931 23.2267C19.8931 23.7734 19.4264 24.2267 18.8797 24.2267Z" fill="#0C131F"/>
<path d="M31.7335 38.3333H26.9335C22.3735 38.3333 20.3335 36.2934 20.3335 31.7334V26.6666C20.4135 22.4133 22.4135 20.4133 26.6535 20.3333H31.7335C36.2935 20.3333 38.3335 22.3732 38.3335 26.9332V31.7334C38.3335 36.2934 36.2935 38.3333 31.7335 38.3333ZM26.6668 22.3333C23.4935 22.3866 22.3868 23.4933 22.3335 26.68V31.7334C22.3335 35.1734 23.4935 36.3333 26.9335 36.3333H31.7335C35.1735 36.3333 36.3335 35.1734 36.3335 31.7334V26.9332C36.3335 23.4932 35.1735 22.3333 31.7335 22.3333H26.6668Z" fill="#0C131F"/>
<path d="M26.7865 27.5067C26.1598 27.5067 25.5465 27.32 25.0265 26.9467C24.5732 26.6267 24.4665 26.0001 24.7865 25.5468C25.1065 25.0934 25.7332 24.9867 26.1865 25.3067C26.5465 25.56 27.0265 25.56 27.3865 25.32C27.8398 25.0134 28.4665 25.12 28.7732 25.5866C29.0798 26.04 28.9732 26.6667 28.5065 26.9734C27.9865 27.3334 27.3865 27.5067 26.7865 27.5067Z" fill="#0C131F"/>
<path d="M32.12 27.5067C31.4933 27.5067 30.88 27.32 30.36 26.9467C29.9067 26.6267 29.8 26.0001 30.12 25.5468C30.44 25.0934 31.0667 24.9867 31.52 25.3067C31.88 25.56 32.36 25.56 32.72 25.32C33.1733 25.0134 33.8 25.12 34.1067 25.5866C34.4133 26.04 34.3067 26.6667 33.84 26.9734C33.32 27.3334 32.72 27.5067 32.12 27.5067Z" fill="#0C131F"/>
<path d="M29.3329 34.8934C26.7996 34.8934 24.7329 32.8266 24.7329 30.2933C24.7329 29.3466 25.5062 28.5734 26.4529 28.5734H32.2129C33.1596 28.5734 33.9329 29.3466 33.9329 30.2933C33.9329 32.8266 31.8662 34.8934 29.3329 34.8934ZM26.7462 30.5734C26.8796 31.8801 27.9862 32.8934 29.3329 32.8934C30.6796 32.8934 31.7729 31.8801 31.9196 30.5734H26.7462Z" fill="#0C131F"/>
</svg>
