<svg width="359" height="361" viewBox="0 0 359 361" fill="none" xmlns="http://www.w3.org/2000/svg">
<rect width="359" height="361" rx="76" fill="#3643BA"/>
<path d="M90.2975 197.75C81.5101 198.445 68.0353 192.528 67.5155 182.497C66.612 164.976 91.0455 160.808 104.02 159.91C127.108 158.316 150.92 168.41 168.159 183.406C181.42 194.938 199.68 202.345 217.293 197.881C226.805 195.472 234.008 188.895 242.902 185.111C252.569 181.001 263.163 179.665 273.335 182.721C281.603 185.203 287.009 195.103 285.003 203.152C276.716 236.348 224.536 230.247 201.628 220.969C195.192 218.361 185.7 214.314 179.458 219.765C173.129 225.297 183.519 231.7 187.769 233.876C197.271 238.733 208.229 239.773 217.701 244.718C233.945 253.194 247.619 266.975 250.893 285.507C253.147 298.248 253.443 316.901 238.506 322.05C225.304 326.602 214.709 317.552 210.323 305.568C208.069 299.419 208.258 292.832 207.734 286.405C207.17 279.498 205.358 266.752 200.943 261.268C183.941 240.147 160.858 243.805 136.061 254.438C112.326 264.614 75.0787 269.263 57.0329 245.286C52.564 239.345 50.0477 230.495 53.8804 223.597C58.8885 214.586 70.7944 215.237 79.3728 217.559C86.9992 219.648 94.6207 221.737 102.247 223.825C113.871 227.007 124.893 231.568 137.435 229.863C145.868 228.717 158.687 226.279 159.644 215.757C160.105 210.681 157.424 206.732 153.635 203.623C136.138 189.264 111.413 196.074 90.3023 197.75H90.2975Z" fill="#D0FF5F"/>
<path d="M145.523 104.077C108.134 98.2727 126.185 40.254 166.478 69.3654C158.419 28.0033 215.797 32.516 206.125 69.2634C233.848 40.254 265.436 88.6013 226.77 104.077C260.277 118.903 242.227 162.742 205.941 139.732C217.725 174.988 159.061 182.726 166.473 139.732C135.851 166.609 106.196 117.615 145.523 104.077Z" fill="#D0FF5F"/>
</svg>