<svg width="416" height="88" viewBox="0 0 416 88" fill="none" xmlns="http://www.w3.org/2000/svg">
<path d="M163.413 58.6231V87.0389H144.793V35.8616H162.443L162.766 49.1652H161.792C163.026 45.147 164.995 41.8009 167.699 39.1303C170.399 36.4562 174.143 35.1191 178.932 35.1191C182.606 35.1191 185.763 35.939 188.403 37.5751C191.043 39.2147 193.072 41.4912 194.496 44.4116C195.916 47.332 196.626 50.6923 196.626 54.4958V87.0389H178.053V58.4823C178.053 55.9173 177.42 53.9153 176.154 52.4797C174.888 51.0441 173.095 50.3228 170.782 50.3228C169.27 50.3228 167.962 50.6571 166.869 51.3186C165.772 51.9836 164.925 52.9265 164.32 54.1475C163.719 55.3684 163.416 56.8603 163.416 58.6196L163.413 58.6231Z" fill="#D0FF5F"/>
<path d="M275.246 87.7846C271.6 87.7846 268.454 86.9648 265.796 85.3287C263.141 83.6926 261.095 81.4125 259.657 78.4921C258.223 75.5717 257.502 72.2115 257.502 68.408V35.8613H276.121V64.4179C276.121 66.9513 276.754 68.9463 278.02 70.3995C279.286 71.8526 281.079 72.5774 283.392 72.5774C284.904 72.5774 286.208 72.2467 287.305 71.5817C288.402 70.9167 289.249 69.9667 289.854 68.7317C290.455 67.4967 290.758 66.0118 290.758 64.2807V35.8613H309.331V87.0422H291.682L291.405 73.7386H292.378C291.144 77.7251 289.176 81.0642 286.472 83.7524C283.768 86.4406 280.024 87.7846 275.239 87.7846H275.246Z" fill="#D0FF5F"/>
<path d="M142.167 65.0231C139.667 62.4616 136.813 60.7832 133.733 59.6714V52.6941C133.905 45.7766 128.617 39.2813 122.999 35.8367C118.509 33.0852 113.078 32.6137 107.934 32.589C106.285 32.582 88.1297 32.7896 88.1297 33.2083V46.241C95.7167 46.241 103.304 46.2164 110.891 46.241C113.485 46.2481 115.387 47.2684 117.184 49.1544C118 50.0094 118.742 50.9946 119.202 52.0924C119.286 52.2894 119.961 55.157 119.522 55.0796C108.082 53.0741 91.7545 51.8531 84.8776 63.5382C81.9982 68.4326 81.4146 75.9799 85.6089 80.2936C89.7224 84.5229 95.6007 86.6833 101.426 86.9155C108.479 87.1935 115.813 84.639 120.44 79.1465L121.607 86.1379H133.297V74.4669L131.44 70.1953L136.605 74.1713L142.167 65.0231ZM106.113 75.1354C102.727 75.7793 96.332 75.3887 96.1105 70.8674C95.8644 65.8429 103.821 64.7873 107.343 64.7381C110.258 64.6958 113.26 65.2764 116.034 66.1596C116.309 66.2475 118.415 66.9759 118.851 67.0146C118.879 67.0146 118.886 67.0462 118.865 67.0674C115.363 70.5824 111.105 74.1854 106.113 75.1354Z" fill="#D0FF5F"/>
<path d="M312.844 87.0807C315.509 74.3893 318.17 61.7014 320.835 49.01C321.039 48.0424 321.239 47.0255 320.951 46.079C320.673 45.1642 319.977 44.4464 319.401 43.6864C314.18 36.79 319.401 27.1633 328.169 28.4722C332.37 29.0985 335.956 32.6768 336.596 36.878C347.39 38.0637 358.18 39.2495 368.973 40.4317C365.556 47.7961 362.093 55.3117 361.098 63.3727C360.693 66.6661 360.954 70.5365 363.618 72.5104C365.781 74.1113 368.745 73.8721 371.417 73.5589C371.417 78.0521 371.417 82.5418 371.417 87.035C364.403 87.3129 356.629 87.3341 351.359 82.6966C347.439 79.2484 345.762 73.7876 345.758 68.5661C345.755 63.3446 347.221 58.2427 348.684 53.2252C344.032 52.4933 339.381 51.7615 334.729 51.0261C332.732 63.0455 330.735 75.0613 328.739 87.0807C323.444 87.0807 318.149 87.0807 312.851 87.0807H312.844Z" fill="#D0FF5F"/>
<path d="M65.5621 70.8603C66.2758 71.2755 71.5213 62.4017 71.9784 61.5432C73.8734 57.9683 75.2937 54.3407 76.2184 50.604C77.1817 46.7125 77.6106 42.6978 77.477 38.5001C77.2555 31.5756 75.4484 24.0811 69.9884 19.31C69.8267 19.1692 69.665 19.032 69.4997 18.8983C60.8896 11.9069 45.6663 15.7351 41.2681 25.8439C35.1155 39.9885 38.1496 57.6622 46.0038 70.5014L35.8081 75.6772L41.6337 87.8584L54.6562 80.2443C61.7158 85.1491 70.34 86.641 78.7568 86.3349V72.9327C74.1581 73.4887 69.7634 72.7779 65.5691 70.8568L65.5621 70.8603ZM58.6817 53.922C58.0032 55.2027 57.293 56.4624 56.5758 57.7009C56.7305 57.43 54.8566 54.2773 54.6562 53.8023C54.062 52.3773 53.5592 50.9136 53.1549 49.4253C52.3182 46.3536 51.8857 43.1763 51.8681 39.9955C51.8506 35.9985 52.1494 25.6046 58.636 26.6708C60.2814 26.9417 61.6842 28.1028 62.5315 29.5208C63.3788 30.9388 63.7339 32.5925 63.8886 34.2321C64.5425 41.0968 61.9584 47.7399 58.6747 53.9255L58.6817 53.922Z" fill="#D0FF5F"/>
<path d="M374.486 87.3272V76.7786L395.201 50.9137V50.685H375.041V36.6987H415.318V48.2537L401.722 64.0273C400.137 65.8288 396.47 70.8709 396.224 73.3374H416V87.3237H374.486V87.3272Z" fill="#D0FF5F"/>
<path d="M227.456 86.9049C221.947 86.9049 217.18 85.8247 213.158 83.6608C209.136 81.5004 206.028 78.4146 203.838 74.4035C201.647 70.3923 200.55 65.6141 200.55 60.0724C200.55 54.5307 201.647 50.0727 203.838 46.0439C206.028 42.0187 209.104 38.8872 213.063 36.6459C217.022 34.4081 221.68 33.2856 227.031 33.2856C230.944 33.2856 234.506 33.9049 237.712 35.1434C240.922 36.382 243.668 38.1588 245.953 40.4776C248.238 42.7963 250 45.5935 251.234 48.8658C252.471 52.1381 253.09 55.815 253.09 59.8859V64.3967H206.323V54.0099H244.311L235.532 56.0788C235.532 54.0416 235.219 52.321 234.594 50.9101C233.968 49.4991 233.043 48.4189 231.823 47.6695C230.603 46.9165 229.084 46.54 227.267 46.54C225.449 46.54 223.979 46.9165 222.759 47.6695C221.539 48.4225 220.608 49.5027 219.964 50.9101C219.321 52.321 219.001 54.0416 219.001 56.0788V63.7845C219.001 65.9765 219.37 67.8097 220.105 69.284C220.84 70.7583 221.873 71.8596 223.202 72.5985C224.531 73.3338 226.106 73.7033 227.921 73.7033C229.204 73.7033 230.378 73.5238 231.443 73.1614C232.509 72.8025 233.416 72.2853 234.168 71.6097C234.92 70.9377 235.483 70.1284 235.859 69.189L252.482 71.1171C251.666 74.2803 250.126 77.0529 247.855 79.435C245.584 81.8171 242.729 83.6573 239.287 84.9556C235.842 86.254 231.9 86.9049 227.453 86.9049H227.456Z" fill="#D0FF5F"/>
<path d="M17.2273 49.1226H0.0351562V87.3411H17.2273V49.1226Z" fill="#D0FF5F"/>
<path d="M0.0351577 49.5976C5.74125 49.7383 11.4473 49.8755 17.1534 50.0163C17.1534 46.7581 17.171 43.4788 17.7335 40.2769C18.1625 37.828 19.0027 35.2946 20.8415 33.7922C22.2232 32.6663 23.9916 32.2652 25.7108 32.0541C28.9981 31.6494 32.3205 31.8218 35.6253 32.0118C35.7413 27.2723 35.8538 22.5328 35.9698 17.7898C30.9071 17.4239 25.7987 17.0685 20.7712 17.8391C16.6472 18.4724 12.5408 19.908 9.12342 22.5364C5.70258 25.1647 3.37514 29.0035 2.01102 33.2574C1.70866 34.2074 1.4485 35.1715 1.23404 36.1461C0.260167 40.5373 0.0949258 45.0833 0 49.5976H0.0351577Z" fill="#D0FF5F"/>
<path d="M35.5477 46.8779H0.499023V61.0401H35.5477V46.8779Z" fill="#D0FF5F"/>
<path d="M163.413 58.6231V87.0389H144.793V35.8616H162.443L162.766 49.1652H161.792C163.026 45.147 164.995 41.8009 167.699 39.1303C170.399 36.4562 174.143 35.1191 178.932 35.1191C182.606 35.1191 185.763 35.939 188.403 37.5751C191.043 39.2147 193.072 41.4912 194.496 44.4116C195.916 47.332 196.626 50.6923 196.626 54.4958V87.0389H178.053V58.4823C178.053 55.9173 177.42 53.9153 176.154 52.4797C174.888 51.0441 173.095 50.3228 170.782 50.3228C169.27 50.3228 167.962 50.6571 166.869 51.3186C165.772 51.9836 164.925 52.9265 164.32 54.1475C163.719 55.3684 163.416 56.8603 163.416 58.6196L163.413 58.6231Z" fill="#D0FF5F"/>
<path d="M275.246 87.7846C271.6 87.7846 268.454 86.9648 265.796 85.3287C263.141 83.6926 261.095 81.4125 259.657 78.4921C258.223 75.5717 257.502 72.2115 257.502 68.408V35.8613H276.121V64.4179C276.121 66.9513 276.754 68.9463 278.02 70.3995C279.286 71.8526 281.079 72.5774 283.392 72.5774C284.904 72.5774 286.208 72.2467 287.305 71.5817C288.402 70.9167 289.249 69.9667 289.854 68.7317C290.455 67.4967 290.758 66.0118 290.758 64.2807V35.8613H309.331V87.0422H291.682L291.405 73.7386H292.378C291.144 77.7251 289.176 81.0642 286.472 83.7524C283.768 86.4406 280.024 87.7846 275.239 87.7846H275.246Z" fill="#D0FF5F"/>
<path d="M142.167 65.0231C139.667 62.4616 136.813 60.7832 133.733 59.6714V52.6941C133.905 45.7766 128.617 39.2813 122.999 35.8367C118.509 33.0852 113.078 32.6137 107.934 32.589C106.285 32.582 88.1297 32.7896 88.1297 33.2083V46.241C95.7167 46.241 103.304 46.2164 110.891 46.241C113.485 46.2481 115.387 47.2684 117.184 49.1544C118 50.0094 118.742 50.9946 119.202 52.0924C119.286 52.2894 119.961 55.157 119.522 55.0796C108.082 53.0741 91.7545 51.8531 84.8776 63.5382C81.9982 68.4326 81.4146 75.9799 85.6089 80.2936C89.7224 84.5229 95.6007 86.6833 101.426 86.9155C108.479 87.1935 115.813 84.639 120.44 79.1465L121.607 86.1379H133.297V74.4669L131.44 70.1953L136.605 74.1713L142.167 65.0231ZM106.113 75.1354C102.727 75.7793 96.332 75.3887 96.1105 70.8674C95.8644 65.8429 103.821 64.7873 107.343 64.7381C110.258 64.6958 113.26 65.2764 116.034 66.1596C116.309 66.2475 118.415 66.9759 118.851 67.0146C118.879 67.0146 118.886 67.0462 118.865 67.0674C115.363 70.5824 111.105 74.1854 106.113 75.1354Z" fill="#D0FF5F"/>
<path d="M312.844 87.0807C315.509 74.3893 318.17 61.7014 320.835 49.01C321.039 48.0424 321.239 47.0255 320.951 46.079C320.673 45.1642 319.977 44.4464 319.401 43.6864C314.18 36.79 319.401 27.1633 328.169 28.4722C332.37 29.0985 335.956 32.6768 336.596 36.878C347.39 38.0637 358.18 39.2495 368.973 40.4317C365.556 47.7961 362.093 55.3117 361.098 63.3727C360.693 66.6661 360.954 70.5365 363.618 72.5104C365.781 74.1113 368.745 73.8721 371.417 73.5589C371.417 78.0521 371.417 82.5418 371.417 87.035C364.403 87.3129 356.629 87.3341 351.359 82.6966C347.439 79.2484 345.762 73.7876 345.758 68.5661C345.755 63.3446 347.221 58.2427 348.684 53.2252C344.032 52.4933 339.381 51.7615 334.729 51.0261C332.732 63.0455 330.735 75.0613 328.739 87.0807C323.444 87.0807 318.149 87.0807 312.851 87.0807H312.844Z" fill="#D0FF5F"/>
<path d="M65.5621 70.8603C66.2758 71.2755 71.5213 62.4017 71.9784 61.5432C73.8734 57.9683 75.2937 54.3407 76.2184 50.604C77.1817 46.7125 77.6106 42.6978 77.477 38.5001C77.2555 31.5756 75.4484 24.0811 69.9884 19.31C69.8267 19.1692 69.665 19.032 69.4997 18.8983C60.8896 11.9069 45.6663 15.7351 41.2681 25.8439C35.1155 39.9885 38.1496 57.6622 46.0038 70.5014L35.8081 75.6772L41.6337 87.8584L54.6562 80.2443C61.7158 85.1491 70.34 86.641 78.7568 86.3349V72.9327C74.1581 73.4887 69.7634 72.7779 65.5691 70.8568L65.5621 70.8603ZM58.6817 53.922C58.0032 55.2027 57.293 56.4624 56.5758 57.7009C56.7305 57.43 54.8566 54.2773 54.6562 53.8023C54.062 52.3773 53.5592 50.9136 53.1549 49.4253C52.3182 46.3536 51.8857 43.1763 51.8681 39.9955C51.8506 35.9985 52.1494 25.6046 58.636 26.6708C60.2814 26.9417 61.6842 28.1028 62.5315 29.5208C63.3788 30.9388 63.7339 32.5925 63.8886 34.2321C64.5425 41.0968 61.9584 47.7399 58.6747 53.9255L58.6817 53.922Z" fill="#D0FF5F"/>
<path d="M374.486 87.3272V76.7786L395.201 50.9137V50.685H375.041V36.6987H415.318V48.2537L401.722 64.0273C400.137 65.8288 396.47 70.8709 396.224 73.3374H416V87.3237H374.486V87.3272Z" fill="#D0FF5F"/>
<path d="M227.456 86.9049C221.947 86.9049 217.18 85.8247 213.158 83.6608C209.136 81.5004 206.028 78.4146 203.838 74.4035C201.647 70.3923 200.55 65.6141 200.55 60.0724C200.55 54.5307 201.647 50.0727 203.838 46.0439C206.028 42.0187 209.104 38.8872 213.063 36.6459C217.022 34.4081 221.68 33.2856 227.031 33.2856C230.944 33.2856 234.506 33.9049 237.712 35.1434C240.922 36.382 243.668 38.1588 245.953 40.4776C248.238 42.7963 250 45.5935 251.234 48.8658C252.471 52.1381 253.09 55.815 253.09 59.8859V64.3967H206.323V54.0099H244.311L235.532 56.0788C235.532 54.0416 235.219 52.321 234.594 50.9101C233.968 49.4991 233.043 48.4189 231.823 47.6695C230.603 46.9165 229.084 46.54 227.267 46.54C225.449 46.54 223.979 46.9165 222.759 47.6695C221.539 48.4225 220.608 49.5027 219.964 50.9101C219.321 52.321 219.001 54.0416 219.001 56.0788V63.7845C219.001 65.9765 219.37 67.8097 220.105 69.284C220.84 70.7583 221.873 71.8596 223.202 72.5985C224.531 73.3338 226.106 73.7033 227.921 73.7033C229.204 73.7033 230.378 73.5238 231.443 73.1614C232.509 72.8025 233.416 72.2853 234.168 71.6097C234.92 70.9377 235.483 70.1284 235.859 69.189L252.482 71.1171C251.666 74.2803 250.126 77.0529 247.855 79.435C245.584 81.8171 242.729 83.6573 239.287 84.9556C235.842 86.254 231.9 86.9049 227.453 86.9049H227.456Z" fill="#D0FF5F"/>
<path d="M17.2273 49.1226H0.0351562V87.3411H17.2273V49.1226Z" fill="#D0FF5F"/>
<path d="M0.0351577 49.5976C5.74125 49.7383 11.4473 49.8755 17.1534 50.0163C17.1534 46.7581 17.171 43.4788 17.7335 40.2769C18.1625 37.828 19.0027 35.2946 20.8415 33.7922C22.2232 32.6663 23.9916 32.2652 25.7108 32.0541C28.9981 31.6494 32.3205 31.8218 35.6253 32.0118C35.7413 27.2723 35.8538 22.5328 35.9698 17.7898C30.9071 17.4239 25.7987 17.0685 20.7712 17.8391C16.6472 18.4724 12.5408 19.908 9.12342 22.5364C5.70258 25.1647 3.37514 29.0035 2.01102 33.2574C1.70866 34.2074 1.4485 35.1715 1.23404 36.1461C0.260167 40.5373 0.0949258 45.0833 0 49.5976H0.0351577Z" fill="#D0FF5F"/>
<path d="M35.5477 46.8779H0.499023V61.0401H35.5477V46.8779Z" fill="#D0FF5F"/>
<path d="M163.413 58.6231V87.0389H144.793V35.8616H162.443L162.766 49.1652H161.792C163.026 45.147 164.995 41.8009 167.699 39.1303C170.399 36.4562 174.143 35.1191 178.932 35.1191C182.606 35.1191 185.763 35.939 188.403 37.5751C191.043 39.2147 193.072 41.4912 194.496 44.4116C195.916 47.332 196.626 50.6923 196.626 54.4958V87.0389H178.053V58.4823C178.053 55.9173 177.42 53.9153 176.154 52.4797C174.888 51.0441 173.095 50.3228 170.782 50.3228C169.27 50.3228 167.962 50.6571 166.869 51.3186C165.772 51.9836 164.925 52.9265 164.32 54.1475C163.719 55.3684 163.416 56.8603 163.416 58.6196L163.413 58.6231Z" fill="#D0FF5F"/>
<path d="M275.246 87.7846C271.6 87.7846 268.454 86.9648 265.796 85.3287C263.141 83.6926 261.095 81.4125 259.657 78.4921C258.223 75.5717 257.502 72.2115 257.502 68.408V35.8613H276.121V64.4179C276.121 66.9513 276.754 68.9463 278.02 70.3995C279.286 71.8526 281.079 72.5774 283.392 72.5774C284.904 72.5774 286.208 72.2467 287.305 71.5817C288.402 70.9167 289.249 69.9667 289.854 68.7317C290.455 67.4967 290.758 66.0118 290.758 64.2807V35.8613H309.331V87.0422H291.682L291.405 73.7386H292.378C291.144 77.7251 289.176 81.0642 286.472 83.7524C283.768 86.4406 280.024 87.7846 275.239 87.7846H275.246Z" fill="#D0FF5F"/>
<path d="M142.167 65.0231C139.667 62.4616 136.813 60.7832 133.733 59.6714V52.6941C133.905 45.7766 128.617 39.2813 122.999 35.8367C118.509 33.0852 113.078 32.6137 107.934 32.589C106.285 32.582 88.1297 32.7896 88.1297 33.2083V46.241C95.7167 46.241 103.304 46.2164 110.891 46.241C113.485 46.2481 115.387 47.2684 117.184 49.1544C118 50.0094 118.742 50.9946 119.202 52.0924C119.286 52.2894 119.961 55.157 119.522 55.0796C108.082 53.0741 91.7545 51.8531 84.8776 63.5382C81.9982 68.4326 81.4146 75.9799 85.6089 80.2936C89.7224 84.5229 95.6007 86.6833 101.426 86.9155C108.479 87.1935 115.813 84.639 120.44 79.1465L121.607 86.1379H133.297V74.4669L131.44 70.1953L136.605 74.1713L142.167 65.0231ZM106.113 75.1354C102.727 75.7793 96.332 75.3887 96.1105 70.8674C95.8644 65.8429 103.821 64.7873 107.343 64.7381C110.258 64.6958 113.26 65.2764 116.034 66.1596C116.309 66.2475 118.415 66.9759 118.851 67.0146C118.879 67.0146 118.886 67.0462 118.865 67.0674C115.363 70.5824 111.105 74.1854 106.113 75.1354Z" fill="#D0FF5F"/>
<path d="M312.844 87.0807C315.509 74.3893 318.17 61.7014 320.835 49.01C321.039 48.0424 321.239 47.0255 320.951 46.079C320.673 45.1642 319.977 44.4464 319.401 43.6864C314.18 36.79 319.401 27.1633 328.169 28.4722C332.37 29.0985 335.956 32.6768 336.596 36.878C347.39 38.0637 358.18 39.2495 368.973 40.4317C365.556 47.7961 362.093 55.3117 361.098 63.3727C360.693 66.6661 360.954 70.5365 363.618 72.5104C365.781 74.1113 368.745 73.8721 371.417 73.5589C371.417 78.0521 371.417 82.5418 371.417 87.035C364.403 87.3129 356.629 87.3341 351.359 82.6966C347.439 79.2484 345.762 73.7876 345.758 68.5661C345.755 63.3446 347.221 58.2427 348.684 53.2252C344.032 52.4933 339.381 51.7615 334.729 51.0261C332.732 63.0455 330.735 75.0613 328.739 87.0807C323.444 87.0807 318.149 87.0807 312.851 87.0807H312.844Z" fill="#D0FF5F"/>
<path d="M65.5621 70.8603C66.2758 71.2755 71.5213 62.4017 71.9784 61.5432C73.8734 57.9683 75.2937 54.3407 76.2184 50.604C77.1817 46.7125 77.6106 42.6978 77.477 38.5001C77.2555 31.5756 75.4484 24.0811 69.9884 19.31C69.8267 19.1692 69.665 19.032 69.4997 18.8983C60.8896 11.9069 45.6663 15.7351 41.2681 25.8439C35.1155 39.9885 38.1496 57.6622 46.0038 70.5014L35.8081 75.6772L41.6337 87.8584L54.6562 80.2443C61.7158 85.1491 70.34 86.641 78.7568 86.3349V72.9327C74.1581 73.4887 69.7634 72.7779 65.5691 70.8568L65.5621 70.8603ZM58.6817 53.922C58.0032 55.2027 57.293 56.4624 56.5758 57.7009C56.7305 57.43 54.8566 54.2773 54.6562 53.8023C54.062 52.3773 53.5592 50.9136 53.1549 49.4253C52.3182 46.3536 51.8857 43.1763 51.8681 39.9955C51.8506 35.9985 52.1494 25.6046 58.636 26.6708C60.2814 26.9417 61.6842 28.1028 62.5315 29.5208C63.3788 30.9388 63.7339 32.5925 63.8886 34.2321C64.5425 41.0968 61.9584 47.7399 58.6747 53.9255L58.6817 53.922Z" fill="#D0FF5F"/>
<path d="M374.486 87.3272V76.7786L395.201 50.9137V50.685H375.041V36.6987H415.318V48.2537L401.722 64.0273C400.137 65.8288 396.47 70.8709 396.224 73.3374H416V87.3237H374.486V87.3272Z" fill="#D0FF5F"/>
<path d="M227.456 86.9049C221.947 86.9049 217.18 85.8247 213.158 83.6608C209.136 81.5004 206.028 78.4146 203.838 74.4035C201.647 70.3923 200.55 65.6141 200.55 60.0724C200.55 54.5307 201.647 50.0727 203.838 46.0439C206.028 42.0187 209.104 38.8872 213.063 36.6459C217.022 34.4081 221.68 33.2856 227.031 33.2856C230.944 33.2856 234.506 33.9049 237.712 35.1434C240.922 36.382 243.668 38.1588 245.953 40.4776C248.238 42.7963 250 45.5935 251.234 48.8658C252.471 52.1381 253.09 55.815 253.09 59.8859V64.3967H206.323V54.0099H244.311L235.532 56.0788C235.532 54.0416 235.219 52.321 234.594 50.9101C233.968 49.4991 233.043 48.4189 231.823 47.6695C230.603 46.9165 229.084 46.54 227.267 46.54C225.449 46.54 223.979 46.9165 222.759 47.6695C221.539 48.4225 220.608 49.5027 219.964 50.9101C219.321 52.321 219.001 54.0416 219.001 56.0788V63.7845C219.001 65.9765 219.37 67.8097 220.105 69.284C220.84 70.7583 221.873 71.8596 223.202 72.5985C224.531 73.3338 226.106 73.7033 227.921 73.7033C229.204 73.7033 230.378 73.5238 231.443 73.1614C232.509 72.8025 233.416 72.2853 234.168 71.6097C234.92 70.9377 235.483 70.1284 235.859 69.189L252.482 71.1171C251.666 74.2803 250.126 77.0529 247.855 79.435C245.584 81.8171 242.729 83.6573 239.287 84.9556C235.842 86.254 231.9 86.9049 227.453 86.9049H227.456Z" fill="#D0FF5F"/>
<path d="M17.2273 49.1226H0.0351562V87.3411H17.2273V49.1226Z" fill="#D0FF5F"/>
<path d="M0.0351577 49.5976C5.74125 49.7383 11.4473 49.8755 17.1534 50.0163C17.1534 46.7581 17.171 43.4788 17.7335 40.2769C18.1625 37.828 19.0027 35.2946 20.8415 33.7922C22.2232 32.6663 23.9916 32.2652 25.7108 32.0541C28.9981 31.6494 32.3205 31.8218 35.6253 32.0118C35.7413 27.2723 35.8538 22.5328 35.9698 17.7898C30.9071 17.4239 25.7987 17.0685 20.7712 17.8391C16.6472 18.4724 12.5408 19.908 9.12342 22.5364C5.70258 25.1647 3.37514 29.0035 2.01102 33.2574C1.70866 34.2074 1.4485 35.1715 1.23404 36.1461C0.260167 40.5373 0.0949258 45.0833 0 49.5976H0.0351577Z" fill="#D0FF5F"/>
<path d="M35.5477 46.8779H0.499023V61.0401H35.5477V46.8779Z" fill="#D0FF5F"/>
</svg>
